<svg xmlns="http://www.w3.org/2000/svg" width="377.43" height="34.79" viewBox="0 0 377.43 34.79"><defs><style>.a{fill:#231f20;}.b{fill:none;stroke:#ce2035;stroke-linecap:round;stroke-miterlimit:10;stroke-width:6px;}</style></defs><title>connextcloud</title><path class="a" d="M293.56,31.56a1.6,1.6,0,0,1-1.94.09,5.1,5.1,0,0,0-1-.58,6.24,6.24,0,0,0-2.52-.48,6.47,6.47,0,0,0-2.65.54,6.35,6.35,0,0,0-2.12,1.51,7,7,0,0,0-1.4,2.31,8.63,8.63,0,0,0,0,5.81,7.22,7.22,0,0,0,1.38,2.29,6.25,6.25,0,0,0,2.07,1.51,6.09,6.09,0,0,0,2.56.54,5.83,5.83,0,0,0,2.77-.64,5.42,5.42,0,0,0,1.58-1.26.74.74,0,0,1,1-.1l3,2.2a.76.76,0,0,1,.11,1.11,8.72,8.72,0,0,1-3.19,2.31,11.72,11.72,0,0,1-4.62,1,14.49,14.49,0,0,1-5-.83,11.46,11.46,0,0,1-3.94-2.37,10.76,10.76,0,0,1-2.59-3.74,13.43,13.43,0,0,1,0-9.81,10.77,10.77,0,0,1,2.59-3.74,11.45,11.45,0,0,1,3.94-2.37,14.49,14.49,0,0,1,5-.83,12.51,12.51,0,0,1,2,.17,11.23,11.23,0,0,1,2.08.56,9.42,9.42,0,0,1,2,1l.17.12a1.65,1.65,0,0,1,.05,2.62Z" transform="translate(-10.45 -20.6)"/><path class="a" d="M298.93,26.57h3.42a.83.83,0,0,1,.83.83v16.3a.83.83,0,0,0,.83.83h7.75a.83.83,0,0,1,.83.83V48.3a.83.83,0,0,1-.83.83H298.93a.83.83,0,0,1-.83-.83V27.41A.83.83,0,0,1,298.93,26.57Z" transform="translate(-10.45 -20.6)"/><path class="a" d="M314.15,37.85a12.51,12.51,0,0,1,.93-4.91,10.77,10.77,0,0,1,2.59-3.74,11.45,11.45,0,0,1,3.94-2.37,15.4,15.4,0,0,1,10,0,11.45,11.45,0,0,1,3.94,2.37,10.78,10.78,0,0,1,2.59,3.74,13.43,13.43,0,0,1,0,9.81,10.76,10.76,0,0,1-2.59,3.74,11.45,11.45,0,0,1-3.94,2.37,15.4,15.4,0,0,1-10,0,11.46,11.46,0,0,1-3.94-2.37,10.76,10.76,0,0,1-2.59-3.74A12.5,12.5,0,0,1,314.15,37.85Zm5.28,0a8.11,8.11,0,0,0,.5,2.92,6.55,6.55,0,0,0,3.71,3.81,8.29,8.29,0,0,0,5.89,0,6.55,6.55,0,0,0,3.71-3.81,8.63,8.63,0,0,0,0-5.81,6.52,6.52,0,0,0-3.71-3.82,8.29,8.29,0,0,0-5.89,0A6.52,6.52,0,0,0,319.93,35,8.14,8.14,0,0,0,319.43,37.85Z" transform="translate(-10.45 -20.6)"/><path class="a" d="M361.93,40.43a10.67,10.67,0,0,1-.62,3.7,8.1,8.1,0,0,1-1.84,2.93,8.44,8.44,0,0,1-3,1.94A13,13,0,0,1,348,49a8.45,8.45,0,0,1-3-1.94,8.1,8.1,0,0,1-1.84-2.93,10.65,10.65,0,0,1-.62-3.7V27.26a.68.68,0,0,1,.68-.68h3.71a.68.68,0,0,1,.68.68v13a5.39,5.39,0,0,0,.34,1.94,4.61,4.61,0,0,0,1,1.55,4.35,4.35,0,0,0,1.48,1,4.74,4.74,0,0,0,1.87.37,4.63,4.63,0,0,0,1.86-.37,4.41,4.41,0,0,0,1.47-1,4.62,4.62,0,0,0,1-1.55,5.37,5.37,0,0,0,.34-1.94v-13a.68.68,0,0,1,.68-.68h3.72a.68.68,0,0,1,.68.68Z" transform="translate(-10.45 -20.6)"/><path class="a" d="M366.62,26.57h7.62a22.23,22.23,0,0,1,5.26.61,12.17,12.17,0,0,1,4.35,2,9.65,9.65,0,0,1,2.95,3.52,11.58,11.58,0,0,1,1.09,5.26A10.22,10.22,0,0,1,384,46.25a12.7,12.7,0,0,1-4.14,2.15,16.38,16.38,0,0,1-4.92.73h-8.3Zm5.08,18h2.64a14.45,14.45,0,0,0,3.27-.35A7.07,7.07,0,0,0,380.23,43,5.61,5.61,0,0,0,382,40.89a7.43,7.43,0,0,0,.63-3.23,6.19,6.19,0,0,0-.63-2.88,5.79,5.79,0,0,0-1.71-2,7.56,7.56,0,0,0-2.52-1.19,11.43,11.43,0,0,0-3-.4h-3Z" transform="translate(-10.45 -20.6)"/><path class="a" d="M112.6,32a.88.88,0,0,1-1.15,0,5,5,0,0,0-1.31-.85,6.05,6.05,0,0,0-2.5-.48,6.25,6.25,0,0,0-4.72,2.08,7.12,7.12,0,0,0-1.39,2.34,8.9,8.9,0,0,0,0,5.88,7.32,7.32,0,0,0,1.37,2.32,6.2,6.2,0,0,0,2,1.53,5.91,5.91,0,0,0,2.53.55,5.67,5.67,0,0,0,2.74-.64,5.37,5.37,0,0,0,1.47-1.16.89.89,0,0,1,1.2-.13l2.75,2.05a.9.9,0,0,1,.14,1.32A8.64,8.64,0,0,1,112.7,49a11.38,11.38,0,0,1-4.58,1,14.06,14.06,0,0,1-4.93-.84,11.29,11.29,0,0,1-3.9-2.4A10.88,10.88,0,0,1,96.73,43a13.87,13.87,0,0,1,0-9.93,10.87,10.87,0,0,1,2.56-3.79,11.3,11.3,0,0,1,3.9-2.4,14.06,14.06,0,0,1,4.93-.84,12.17,12.17,0,0,1,2,.18,10.94,10.94,0,0,1,2.06.56,9.23,9.23,0,0,1,2,1,7.53,7.53,0,0,1,1,.85A.9.9,0,0,1,115.1,30Z" transform="translate(-10.45 -20.6)"/><path class="a" d="M118.61,38a12.9,12.9,0,0,1,.92-5,10.87,10.87,0,0,1,2.56-3.79,11.3,11.3,0,0,1,3.9-2.4,14.94,14.94,0,0,1,9.87,0,11.3,11.3,0,0,1,3.9,2.4A10.89,10.89,0,0,1,142.33,33a13.88,13.88,0,0,1,0,9.93,10.89,10.89,0,0,1-2.56,3.79,11.29,11.29,0,0,1-3.9,2.4,14.93,14.93,0,0,1-9.87,0,11.29,11.29,0,0,1-3.9-2.4A10.88,10.88,0,0,1,119.53,43,12.9,12.9,0,0,1,118.61,38Zm5.22,0a8.35,8.35,0,0,0,.5,3,6.73,6.73,0,0,0,1.43,2.32A6.54,6.54,0,0,0,128,44.81a8,8,0,0,0,5.84,0,6.54,6.54,0,0,0,2.24-1.53A6.76,6.76,0,0,0,137.52,41a8.9,8.9,0,0,0,0-5.88,6.73,6.73,0,0,0-1.43-2.34,6.56,6.56,0,0,0-2.24-1.53,8,8,0,0,0-5.84,0,6.56,6.56,0,0,0-2.24,1.53,6.71,6.71,0,0,0-1.43,2.34A8.39,8.39,0,0,0,123.83,38Z" transform="translate(-10.45 -20.6)"/><path class="a" d="M148.68,26.59h5.44a.9.9,0,0,1,.76.43l9.44,15.43h.06v-15a.9.9,0,0,1,.9-.9h3.24a.9.9,0,0,1,.9.9v21a.9.9,0,0,1-.9.9h-5.18a.9.9,0,0,1-.76-.43l-9.7-15.82h-.06V48.52a.9.9,0,0,1-.9.9h-3.24a.9.9,0,0,1-.9-.9v-21A.9.9,0,0,1,148.68,26.59Z" transform="translate(-10.45 -20.6)"/><path class="a" d="M175.86,26.59h5.44a.9.9,0,0,1,.76.43l9.44,15.43h.06v-15a.9.9,0,0,1,.9-.9h3.24a.9.9,0,0,1,.9.9v21a.9.9,0,0,1-.9.9h-5.18a.9.9,0,0,1-.76-.43l-9.7-15.82H180V48.52a.9.9,0,0,1-.9.9h-3.24a.9.9,0,0,1-.9-.9v-21A.9.9,0,0,1,175.86,26.59Z" transform="translate(-10.45 -20.6)"/><path class="a" d="M202.65,26.59h13.72a.9.9,0,0,1,.9.9v2.85a.9.9,0,0,1-.9.9h-8.69a.9.9,0,0,0-.9.9V34.6a.9.9,0,0,0,.9.9h8.11a.9.9,0,0,1,.9.9v2.85a.9.9,0,0,1-.9.9h-8.11a.9.9,0,0,0-.9.9v2.85a.9.9,0,0,0,.9.9h9.27a.9.9,0,0,1,.9.9v2.85a.9.9,0,0,1-.9.9h-14.3a.9.9,0,0,1-.9-.9v-21A.9.9,0,0,1,202.65,26.59Z" transform="translate(-10.45 -20.6)"/><path class="a" d="M229.16,37.49,222.59,28a.9.9,0,0,1,.74-1.41h4.11a.9.9,0,0,1,.76.43l4.61,7.57L237.22,27a.9.9,0,0,1,.77-.44h3.88a.9.9,0,0,1,.74,1.4l-6.43,9.4L243.48,48a.9.9,0,0,1-.74,1.4h-4.11a.9.9,0,0,1-.77-.43l-5.32-8.76L227.39,49a.9.9,0,0,1-.77.44h-3.77A.9.9,0,0,1,222.1,48Z" transform="translate(-10.45 -20.6)"/><path class="a" d="M253,31h-5.62a.9.9,0,0,1-.9-.9V27.49a.9.9,0,0,1,.9-.9H263.6a.9.9,0,0,1,.9.9v2.66a.9.9,0,0,1-.9.9H258V48.52a.9.9,0,0,1-.9.9h-3.24a.9.9,0,0,1-.9-.9Z" transform="translate(-10.45 -20.6)"/><path class="b" d="M51.12,51.3a14.39,14.39,0,1,0,0-26.59c-3.67,1.52-6.76,4.25-7.79,7.79A33.17,33.17,0,0,0,42.24,38a17,17,0,0,1-1.1,5.5,14.39,14.39,0,1,1-7.79-18.8" transform="translate(-10.45 -20.6)"/></svg>